name rise43.5482peak65.4966fall89.1036.mot
datacolumns 19
datarows 36
range 19.52491700000000 19.58325400000000
endheader
time	ground_force1_vx	ground_force1_vy	ground_force1_vz	ground_force1_px	ground_force1_py	ground_force1_pz	ground_force2_vx	ground_force2_vy	ground_force2_vz	ground_force2_px	ground_force2_py	ground_force2_pz	ground_torque1_x	ground_torque1_y	ground_torque1_z	ground_torque2_x	ground_torque2_y	ground_torque2_z	
19.52491700000000	4.69836300000000	715.79741500000000	36.86840000000000	0.18916900000000	0.00000000000000	0.10677000000000	0.00000000000000	0.00000000000000	0.00000000000000	0.00000000000000	0.00000000000000	0.00000000000000	0.00000000000000	12.31137500000000	0.00000000000000	0.00000000000000	0.00000000000000	0.00000000000000	
19.52659100000000	4.15380500000000	716.38811799999996	36.88233600000000	0.18798200000000	0.00000000000000	0.10682200000000	0.00000000000000	0.00000000000000	0.00000000000000	0.00000000000000	0.00000000000000	0.00000000000000	0.00000000000000	12.36681700000000	0.00000000000000	0.00000000000000	0.00000000000000	0.00000000000000	
19.52825400000000	3.60153000000000	716.98212799999999	36.89792600000000	0.18678900000000	0.00000000000000	0.10687400000000	0.00000000000000	0.00000000000000	0.00000000000000	0.00000000000000	0.00000000000000	0.00000000000000	0.00000000000000	12.42443600000000	0.00000000000000	0.00000000000000	0.00000000000000	0.00000000000000	
19.52991900000000	3.04173400000000	717.57969200000002	36.91517100000000	0.18559200000000	0.00000000000000	0.10692600000000	0.00000000000000	0.00000000000000	0.00000000000000	0.00000000000000	0.00000000000000	0.00000000000000	0.00000000000000	12.48421500000000	0.00000000000000	0.00000000000000	0.00000000000000	0.00000000000000	
19.53158600000000	2.47462100000000	718.18116199999997	36.93408200000000	0.18439200000000	0.00000000000000	0.10697800000000	0.00000000000000	0.00000000000000	0.00000000000000	0.00000000000000	0.00000000000000	0.00000000000000	0.00000000000000	12.54613600000000	0.00000000000000	0.00000000000000	0.00000000000000	0.00000000000000	
19.53325300000000	1.90040400000000	718.78700000000003	36.95467500000000	0.18318900000000	0.00000000000000	0.10703000000000	0.00000000000000	0.00000000000000	0.00000000000000	0.00000000000000	0.00000000000000	0.00000000000000	0.00000000000000	12.61017900000000	0.00000000000000	0.00000000000000	0.00000000000000	0.00000000000000	
19.53492800000000	1.31930600000000	719.39776500000005	36.97697000000000	0.18198500000000	0.00000000000000	0.10708200000000	0.00000000000000	0.00000000000000	0.00000000000000	0.00000000000000	0.00000000000000	0.00000000000000	0.00000000000000	12.67632100000000	0.00000000000000	0.00000000000000	0.00000000000000	0.00000000000000	
19.53658600000000	0.73155200000000	720.01411800000005	37.00099600000000	0.18078000000000	0.00000000000000	0.10713300000000	0.00000000000000	0.00000000000000	0.00000000000000	0.00000000000000	0.00000000000000	0.00000000000000	0.00000000000000	12.74453700000000	0.00000000000000	0.00000000000000	0.00000000000000	0.00000000000000	
19.53825100000000	0.13737600000000	720.63681299999996	37.02678900000000	0.17957700000000	0.00000000000000	0.10718500000000	0.00000000000000	0.00000000000000	0.00000000000000	0.00000000000000	0.00000000000000	0.00000000000000	0.00000000000000	12.81480100000000	0.00000000000000	0.00000000000000	0.00000000000000	0.00000000000000	
19.53991600000000	-0.46298700000000	721.26669200000003	37.05439000000000	0.17837500000000	0.00000000000000	0.10723700000000	0.00000000000000	0.00000000000000	0.00000000000000	0.00000000000000	0.00000000000000	0.00000000000000	0.00000000000000	12.88708400000000	0.00000000000000	0.00000000000000	0.00000000000000	0.00000000000000	
19.54159100000000	-1.06929700000000	721.90467899999999	37.08384500000000	0.17717500000000	0.00000000000000	0.10728800000000	0.00000000000000	0.00000000000000	0.00000000000000	0.00000000000000	0.00000000000000	0.00000000000000	0.00000000000000	12.96135500000000	0.00000000000000	0.00000000000000	0.00000000000000	0.00000000000000	
19.54325200000000	-1.68131300000000	722.55178000000001	37.11521100000000	0.17597900000000	0.00000000000000	0.10733900000000	0.00000000000000	0.00000000000000	0.00000000000000	0.00000000000000	0.00000000000000	0.00000000000000	0.00000000000000	13.03757900000000	0.00000000000000	0.00000000000000	0.00000000000000	0.00000000000000	
19.54492200000000	-2.29879300000000	723.20907000000000	37.14854800000000	0.17478700000000	0.00000000000000	0.10738900000000	0.00000000000000	0.00000000000000	0.00000000000000	0.00000000000000	0.00000000000000	0.00000000000000	0.00000000000000	13.11572000000000	0.00000000000000	0.00000000000000	0.00000000000000	0.00000000000000	
19.54658700000000	-2.92149500000000	723.87768800000003	37.18392300000000	0.17359900000000	0.00000000000000	0.10743900000000	0.00000000000000	0.00000000000000	0.00000000000000	0.00000000000000	0.00000000000000	0.00000000000000	0.00000000000000	13.19574000000000	0.00000000000000	0.00000000000000	0.00000000000000	0.00000000000000	
19.54825100000000	-3.54917700000000	724.55883600000004	37.22141000000000	0.17241700000000	0.00000000000000	0.10748900000000	0.00000000000000	0.00000000000000	0.00000000000000	0.00000000000000	0.00000000000000	0.00000000000000	0.00000000000000	13.27759500000000	0.00000000000000	0.00000000000000	0.00000000000000	0.00000000000000	
19.54992600000000	-4.18159900000000	725.25376300000005	37.26109000000000	0.17124100000000	0.00000000000000	0.10753800000000	0.00000000000000	0.00000000000000	0.00000000000000	0.00000000000000	0.00000000000000	0.00000000000000	0.00000000000000	13.36124200000000	0.00000000000000	0.00000000000000	0.00000000000000	0.00000000000000	
19.55158900000000	-4.81852400000000	725.96376499999997	37.30304800000000	0.17007100000000	0.00000000000000	0.10758700000000	0.00000000000000	0.00000000000000	0.00000000000000	0.00000000000000	0.00000000000000	0.00000000000000	0.00000000000000	13.44663400000000	0.00000000000000	0.00000000000000	0.00000000000000	0.00000000000000	
19.55325600000000	-5.45971400000000	726.69017299999996	37.34737800000000	0.16890800000000	0.00000000000000	0.10763600000000	0.00000000000000	0.00000000000000	0.00000000000000	0.00000000000000	0.00000000000000	0.00000000000000	0.00000000000000	13.53372000000000	0.00000000000000	0.00000000000000	0.00000000000000	0.00000000000000	
19.55492700000000	-6.10493900000000	727.43434700000000	37.39417700000000	0.16775200000000	0.00000000000000	0.10768400000000	0.00000000000000	0.00000000000000	0.00000000000000	0.00000000000000	0.00000000000000	0.00000000000000	0.00000000000000	13.62244800000000	0.00000000000000	0.00000000000000	0.00000000000000	0.00000000000000	
19.55658400000000	-6.75396700000000	728.19767000000002	37.44354900000000	0.16660300000000	0.00000000000000	0.10773100000000	0.00000000000000	0.00000000000000	0.00000000000000	0.00000000000000	0.00000000000000	0.00000000000000	0.00000000000000	13.71276200000000	0.00000000000000	0.00000000000000	0.00000000000000	0.00000000000000	
19.55825100000000	-7.40657400000000	728.98153300000001	37.49560200000000	0.16546100000000	0.00000000000000	0.10777800000000	0.00000000000000	0.00000000000000	0.00000000000000	0.00000000000000	0.00000000000000	0.00000000000000	0.00000000000000	13.80460400000000	0.00000000000000	0.00000000000000	0.00000000000000	0.00000000000000	
19.55992700000000	-8.06253700000000	729.78733599999998	37.55045100000000	0.16432700000000	0.00000000000000	0.10782400000000	0.00000000000000	0.00000000000000	0.00000000000000	0.00000000000000	0.00000000000000	0.00000000000000	0.00000000000000	13.89791200000000	0.00000000000000	0.00000000000000	0.00000000000000	0.00000000000000	
19.56159000000000	-8.72163900000000	730.61647200000004	37.60821100000000	0.16320100000000	0.00000000000000	0.10787000000000	0.00000000000000	0.00000000000000	0.00000000000000	0.00000000000000	0.00000000000000	0.00000000000000	0.00000000000000	13.99262300000000	0.00000000000000	0.00000000000000	0.00000000000000	0.00000000000000	
19.56325500000000	-9.38366700000000	731.47032200000001	37.66900600000000	0.16208300000000	0.00000000000000	0.10791500000000	0.00000000000000	0.00000000000000	0.00000000000000	0.00000000000000	0.00000000000000	0.00000000000000	0.00000000000000	14.08867000000000	0.00000000000000	0.00000000000000	0.00000000000000	0.00000000000000	
19.56492900000000	-10.04841000000000	732.35024599999997	37.73295800000000	0.16097200000000	0.00000000000000	0.10795900000000	0.00000000000000	0.00000000000000	0.00000000000000	0.00000000000000	0.00000000000000	0.00000000000000	0.00000000000000	14.18598300000000	0.00000000000000	0.00000000000000	0.00000000000000	0.00000000000000	
19.56659100000000	-10.71566300000000	733.25757499999997	37.80019600000000	0.15986800000000	0.00000000000000	0.10800400000000	0.00000000000000	0.00000000000000	0.00000000000000	0.00000000000000	0.00000000000000	0.00000000000000	0.00000000000000	14.28449100000000	0.00000000000000	0.00000000000000	0.00000000000000	0.00000000000000	
19.56825600000000	-11.38522600000000	734.19360099999994	37.87084800000000	0.15877200000000	0.00000000000000	0.10804700000000	0.00000000000000	0.00000000000000	0.00000000000000	0.00000000000000	0.00000000000000	0.00000000000000	0.00000000000000	14.38412000000000	0.00000000000000	0.00000000000000	0.00000000000000	0.00000000000000	
19.56993700000000	-12.05690100000000	735.15957100000003	37.94504400000000	0.15768300000000	0.00000000000000	0.10809000000000	0.00000000000000	0.00000000000000	0.00000000000000	0.00000000000000	0.00000000000000	0.00000000000000	0.00000000000000	14.48479200000000	0.00000000000000	0.00000000000000	0.00000000000000	0.00000000000000	
19.57159100000000	-12.73049600000000	736.15667599999995	38.02291600000000	0.15660000000000	0.00000000000000	0.10813300000000	0.00000000000000	0.00000000000000	0.00000000000000	0.00000000000000	0.00000000000000	0.00000000000000	0.00000000000000	14.58642900000000	0.00000000000000	0.00000000000000	0.00000000000000	0.00000000000000	
19.57325100000000	-13.40582000000000	737.18604600000003	38.10459500000000	0.15552400000000	0.00000000000000	0.10817500000000	0.00000000000000	0.00000000000000	0.00000000000000	0.00000000000000	0.00000000000000	0.00000000000000	0.00000000000000	14.68894900000000	0.00000000000000	0.00000000000000	0.00000000000000	0.00000000000000	
19.57493800000000	-14.08268800000000	738.24873800000000	38.19020900000000	0.15445400000000	0.00000000000000	0.10821600000000	0.00000000000000	0.00000000000000	0.00000000000000	0.00000000000000	0.00000000000000	0.00000000000000	0.00000000000000	14.79227100000000	0.00000000000000	0.00000000000000	0.00000000000000	0.00000000000000	
19.57658600000000	-14.76091900000000	739.34573399999999	38.27988700000000	0.15339000000000	0.00000000000000	0.10825800000000	0.00000000000000	0.00000000000000	0.00000000000000	0.00000000000000	0.00000000000000	0.00000000000000	0.00000000000000	14.89630800000000	0.00000000000000	0.00000000000000	0.00000000000000	0.00000000000000	
19.57825000000000	-15.44033100000000	740.47792700000002	38.37375400000000	0.15233200000000	0.00000000000000	0.10829800000000	0.00000000000000	0.00000000000000	0.00000000000000	0.00000000000000	0.00000000000000	0.00000000000000	0.00000000000000	15.00097400000000	0.00000000000000	0.00000000000000	0.00000000000000	0.00000000000000	
19.57993500000000	-16.12075000000000	741.64612000000000	38.47193300000000	0.15127800000000	0.00000000000000	0.10833900000000	0.00000000000000	0.00000000000000	0.00000000000000	0.00000000000000	0.00000000000000	0.00000000000000	0.00000000000000	15.10618100000000	0.00000000000000	0.00000000000000	0.00000000000000	0.00000000000000	
19.58158900000000	-16.80200200000000	742.85101299999997	38.57454300000000	0.15022900000000	0.00000000000000	0.10837900000000	0.00000000000000	0.00000000000000	0.00000000000000	0.00000000000000	0.00000000000000	0.00000000000000	0.00000000000000	15.21183900000000	0.00000000000000	0.00000000000000	0.00000000000000	0.00000000000000	
19.58325400000000	-17.48391600000000	744.09320400000001	38.68169500000000	0.14918300000000	0.00000000000000	0.10841900000000	0.00000000000000	0.00000000000000	0.00000000000000	0.00000000000000	0.00000000000000	0.00000000000000	0.00000000000000	15.31785800000000	0.00000000000000	0.00000000000000	0.00000000000000	0.00000000000000	
